<svg id="Layer_1" data-name="Layer 1" xmlns="http://www.w3.org/2000/svg" viewBox="0 0 326.6 139.3"><defs><style>.cls-1{fill:none;stroke:#d21217;stroke-width:2.17px;}.cls-2{fill:#193359;}.cls-3{fill:#d21217;}</style></defs><line class="cls-1" y1="103.16" x2="326.6" y2="103.16"/><path class="cls-2" d="M67.28,142.56H63.36v7.06a3.37,3.37,0,0,0,.15,1.09,1.4,1.4,0,0,0,1,1,3.32,3.32,0,0,0,.8.09,4.51,4.51,0,0,0,1-.13,6,6,0,0,0,1-.33l.09,1.56a6.92,6.92,0,0,1-2.59.43,5.11,5.11,0,0,1-1.14-.13,2.74,2.74,0,0,1-1.09-.48,2.68,2.68,0,0,1-.81-1,3.56,3.56,0,0,1-.32-1.62v-7.54H58.58V141h2.87v-3.37h1.91V141h3.92Z" transform="translate(-27.07 -21.06)"/><path class="cls-2" d="M89.38,147a6,6,0,0,1-.53,2.51,6.08,6.08,0,0,1-1.5,2,7.11,7.11,0,0,1-2.28,1.32,9.18,9.18,0,0,1-5.8,0A7,7,0,0,1,77,151.51a6.08,6.08,0,0,1-1.5-2,6.21,6.21,0,0,1,0-5,6.08,6.08,0,0,1,1.5-2,7,7,0,0,1,2.27-1.32,9.18,9.18,0,0,1,5.8,0,7.11,7.11,0,0,1,2.28,1.32,6.08,6.08,0,0,1,1.5,2A6,6,0,0,1,89.38,147Zm-2.09,0a4.83,4.83,0,0,0-.36-1.87,4.36,4.36,0,0,0-1-1.51,5,5,0,0,0-1.61-1,6.32,6.32,0,0,0-4.26,0,4.91,4.91,0,0,0-1.6,1,4.6,4.6,0,0,0-1,1.51,4.91,4.91,0,0,0,0,3.74,4.6,4.6,0,0,0,1,1.51,4.91,4.91,0,0,0,1.6,1,6.32,6.32,0,0,0,4.26,0,5,5,0,0,0,1.61-1,4.36,4.36,0,0,0,1-1.51A4.87,4.87,0,0,0,87.29,147Z" transform="translate(-27.07 -21.06)"/><path class="cls-2" d="M100.55,146.42,107,141h2.87l-6.76,5.48,7.48,6.5h-3l-7-6.3V153H98.63V133.66h1.92Z" transform="translate(-27.07 -21.06)"/><path class="cls-2" d="M119.72,147.47a4.71,4.71,0,0,0,.49,1.69,4.49,4.49,0,0,0,1.08,1.37,5.25,5.25,0,0,0,3.42,1.24,5.3,5.3,0,0,0,2.65-.63,5.14,5.14,0,0,0,1.7-1.44l1.48,1.07a7.28,7.28,0,0,1-2.68,1.94,8.64,8.64,0,0,1-6,.12,6.82,6.82,0,0,1-2.22-1.32,6.11,6.11,0,0,1-1.46-2,5.86,5.86,0,0,1-.54-2.51,6,6,0,0,1,.52-2.51,6.08,6.08,0,0,1,1.45-2,7,7,0,0,1,2.18-1.32,7.66,7.66,0,0,1,2.7-.47,7.45,7.45,0,0,1,2.75.48,6.36,6.36,0,0,1,2,1.3,5.32,5.32,0,0,1,1.26,1.89,6.12,6.12,0,0,1,.43,2.31v.77Zm9.22-1.38a3.58,3.58,0,0,0-1.16-2.78,4.65,4.65,0,0,0-3.24-1.06,5.25,5.25,0,0,0-1.8.32,5.42,5.42,0,0,0-1.53.86,4.48,4.48,0,0,0-1,1.23,2.85,2.85,0,0,0-.39,1.43Z" transform="translate(-27.07 -21.06)"/><path class="cls-2" d="M142.11,141a8,8,0,0,1,.07,1c0,.32,0,.64,0,1h.06a4,4,0,0,1,.81-.89,5.92,5.92,0,0,1,1.1-.71,7.89,7.89,0,0,1,1.29-.46,5.78,5.78,0,0,1,1.35-.16,5.35,5.35,0,0,1,3.86,1.21,4.64,4.64,0,0,1,1.25,3.47V153H150v-6.63a5.12,5.12,0,0,0-.78-3.06,3.42,3.42,0,0,0-2.9-1.06c-.1,0-.37,0-.81.1a3.74,3.74,0,0,0-1.41.57,4.18,4.18,0,0,0-1.32,1.38,4.76,4.76,0,0,0-.58,2.56V153h-1.91v-9.34c0-.32,0-.73,0-1.23s-.06-1-.1-1.41Z" transform="translate(-27.07 -21.06)"/><path class="cls-2" d="M176,141h1.91v2H178a4.77,4.77,0,0,1,1.1-1.05,7.23,7.23,0,0,1,1.34-.72,7.06,7.06,0,0,1,1.43-.4,8,8,0,0,1,1.41-.13,8.77,8.77,0,0,1,2.92.47,7.06,7.06,0,0,1,2.27,1.32,6.08,6.08,0,0,1,1.5,2,6.21,6.21,0,0,1,0,5,6.08,6.08,0,0,1-1.5,2,7.06,7.06,0,0,1-2.27,1.32,8.77,8.77,0,0,1-2.92.47,8,8,0,0,1-1.41-.13,6.49,6.49,0,0,1-1.43-.41,6.63,6.63,0,0,1-1.34-.71A4.77,4.77,0,0,1,178,151h-.06v9.36H176Zm12.38,6a4.83,4.83,0,0,0-.36-1.87,4.36,4.36,0,0,0-1-1.51,5,5,0,0,0-1.61-1,5.94,5.94,0,0,0-2.13-.37,6.25,6.25,0,0,0-2.17.37,5.74,5.74,0,0,0-1.72,1,4.64,4.64,0,0,0-1.13,1.51,4.57,4.57,0,0,0,0,3.74,4.64,4.64,0,0,0,1.13,1.51,5.74,5.74,0,0,0,1.72,1,6.25,6.25,0,0,0,2.17.37,5.94,5.94,0,0,0,2.13-.37,5,5,0,0,0,1.61-1,4.36,4.36,0,0,0,1-1.51A4.87,4.87,0,0,0,188.4,147Z" transform="translate(-27.07 -21.06)"/><path class="cls-2" d="M201.86,153H200V133.66h1.91Z" transform="translate(-27.07 -21.06)"/><path class="cls-2" d="M221,145.65v-.3q0-3.1-3.48-3.1a6.46,6.46,0,0,0-4.15,1.41l-1.16-1.2q1.92-1.74,5.74-1.74a7,7,0,0,1,1.9.25,4.41,4.41,0,0,1,1.58.78,3.87,3.87,0,0,1,1.08,1.32,4.12,4.12,0,0,1,.4,1.89v5.35c0,.46,0,.94.08,1.44a12.27,12.27,0,0,0,.16,1.25h-1.86a8.39,8.39,0,0,1-.13-.95c0-.34,0-.67,0-1H221a5,5,0,0,1-2,1.73,6.7,6.7,0,0,1-2.8.52,7.15,7.15,0,0,1-1.74-.21,4.71,4.71,0,0,1-1.49-.67,3.54,3.54,0,0,1-1.05-1.1,2.91,2.91,0,0,1-.39-1.52,3,3,0,0,1,.86-2.29,5.33,5.33,0,0,1,2.14-1.24,12.05,12.05,0,0,1,2.76-.51c1-.07,1.87-.11,2.68-.11ZM220,147c-.48,0-1.09,0-1.81.06a10.85,10.85,0,0,0-2.09.31,4.78,4.78,0,0,0-1.71.75,1.65,1.65,0,0,0-.71,1.41,1.84,1.84,0,0,0,.27,1,2.26,2.26,0,0,0,.75.69,3.12,3.12,0,0,0,1,.38,5.54,5.54,0,0,0,1.15.12,4.73,4.73,0,0,0,1.81-.31,3.55,3.55,0,0,0,1.29-.83,3.17,3.17,0,0,0,.77-1.23,4.36,4.36,0,0,0,.25-1.49V147Z" transform="translate(-27.07 -21.06)"/><path class="cls-2" d="M240.09,142.56h-3.91v7.06a3.7,3.7,0,0,0,.14,1.09,1.4,1.4,0,0,0,1,1,3.32,3.32,0,0,0,.8.09,4.44,4.44,0,0,0,1-.13,6,6,0,0,0,1-.33l.09,1.56a6.9,6.9,0,0,1-2.58.43,5.2,5.2,0,0,1-1.15-.13,2.74,2.74,0,0,1-1.09-.48,2.79,2.79,0,0,1-.81-1,3.56,3.56,0,0,1-.32-1.62v-7.54h-2.87V141h2.87v-3.37h1.92V141h3.91Z" transform="translate(-27.07 -21.06)"/><path class="cls-2" d="M255.41,142.56h-3.22V153h-1.92V142.56H247.4V141h2.87v-3.27a4.15,4.15,0,0,1,1.25-3.39,5.11,5.11,0,0,1,3.31-1,7.67,7.67,0,0,1,.82.05l.83.13-.35,1.54a5.4,5.4,0,0,0-.72-.13,4.85,4.85,0,0,0-.76-.05,2.89,2.89,0,0,0-1.27.23,1.73,1.73,0,0,0-.76.65,2.72,2.72,0,0,0-.35,1,9.22,9.22,0,0,0-.08,1.21V141h3.22Z" transform="translate(-27.07 -21.06)"/><path class="cls-2" d="M277.16,147a5.91,5.91,0,0,1-2,4.5,7.11,7.11,0,0,1-2.28,1.32,9.18,9.18,0,0,1-5.8,0,7,7,0,0,1-2.27-1.32,6.08,6.08,0,0,1-1.5-2,6.1,6.1,0,0,1,0-5,6.08,6.08,0,0,1,1.5-2,7,7,0,0,1,2.27-1.32,9.18,9.18,0,0,1,5.8,0,7.11,7.11,0,0,1,2.28,1.32,5.91,5.91,0,0,1,2,4.5Zm-2.09,0a4.83,4.83,0,0,0-.36-1.87,4.51,4.51,0,0,0-1-1.51,5.07,5.07,0,0,0-1.61-1,5.94,5.94,0,0,0-2.13-.37,5.87,5.87,0,0,0-2.13.37,4.91,4.91,0,0,0-1.6,1,4.6,4.6,0,0,0-1,1.51,4.91,4.91,0,0,0,0,3.74,4.6,4.6,0,0,0,1,1.51,4.91,4.91,0,0,0,1.6,1,5.87,5.87,0,0,0,2.13.37,5.94,5.94,0,0,0,2.13-.37,5.07,5.07,0,0,0,1.61-1,4.51,4.51,0,0,0,1-1.51A4.87,4.87,0,0,0,275.07,147Z" transform="translate(-27.07 -21.06)"/><path class="cls-2" d="M286.62,144.76c0-.53,0-1.07-.05-1.61s-.05-1.26-.07-2.13h1.88v2.23h.06a3.87,3.87,0,0,1,.58-.93,4.27,4.27,0,0,1,.92-.81,4.42,4.42,0,0,1,1.24-.57,5.36,5.36,0,0,1,1.61-.22,6,6,0,0,1,1.42.15l-.37,1.66a3.84,3.84,0,0,0-1.1-.12,4.33,4.33,0,0,0-1.89.37,4.11,4.11,0,0,0-1.31.94,4,4,0,0,0-.76,1.24,3.59,3.59,0,0,0-.25,1.28V153h-1.91Z" transform="translate(-27.07 -21.06)"/><path class="cls-2" d="M302.34,143.68c0-.44,0-.88,0-1.33s-.06-.88-.1-1.33h2.06v1.82h.06a4.28,4.28,0,0,1,1.93-1.59,6.22,6.22,0,0,1,2.45-.53,6.94,6.94,0,0,1,1.17.1,4.7,4.7,0,0,1,1.21.37,4,4,0,0,1,1.94,2,4.2,4.2,0,0,1,1.84-1.82,5.6,5.6,0,0,1,2.63-.66,5.32,5.32,0,0,1,3.85,1.21,4.6,4.6,0,0,1,1.25,3.47V153h-1.91v-7a4.57,4.57,0,0,0-.73-2.79,3.2,3.2,0,0,0-2.7-1,4,4,0,0,0-1.79.37,3.28,3.28,0,0,0-1.18,1,4,4,0,0,0-.65,1.39,6.22,6.22,0,0,0-.2,1.63V153H311.5v-7a4.64,4.64,0,0,0-.72-2.79,3.23,3.23,0,0,0-2.7-1c-.12,0-.38,0-.8.1a3.28,3.28,0,0,0-1.29.57,4,4,0,0,0-1.2,1.38,5.08,5.08,0,0,0-.54,2.56V153h-1.91Z" transform="translate(-27.07 -21.06)"/><path class="cls-2" d="M31,94.88h8.82a7.12,7.12,0,0,0,5.42-2.23A7.86,7.86,0,0,0,47.43,87a7.55,7.55,0,0,0-2.07-5.47,7.29,7.29,0,0,0-5.53-2.15H31l-3.91-.06V75.68H39.28a12,12,0,0,1,8.51,3.21,11.4,11.4,0,0,1,0,16.53,11.81,11.81,0,0,1-7.53,3.18L52,113.65H46.7l-11.13-15H31v15H27.1V94.84Z" transform="translate(-27.07 -21.06)"/><rect class="cls-2" x="30.4" y="54.62" width="3.91" height="37.97"/><polygon class="cls-2" points="39.06 54.62 43.3 54.62 56.31 85.21 69.26 54.62 73.51 54.62 56.31 94.87 39.06 54.62"/><polygon class="cls-2" points="84.62 61.15 72.17 92.59 67.92 92.59 84.62 51.99 101.26 92.59 97.01 92.59 84.62 61.15"/><polygon class="cls-2" points="124.98 58.24 124.98 71.76 143.08 71.76 143.08 75.44 124.98 75.44 124.98 92.58 121.08 92.58 121.08 54.62 143.64 54.62 143.64 58.24 124.98 58.24"/><rect class="cls-2" x="148.94" y="54.62" width="3.91" height="37.97"/><polygon class="cls-2" points="165.13 92.58 161.22 92.58 161.22 52.21 182.55 82.53 182.55 54.62 186.46 54.62 186.46 94.93 165.13 64.61 165.13 92.58"/><polygon class="cls-2" points="207.9 61.15 195.44 92.59 191.2 92.59 207.9 51.99 224.54 92.59 220.3 92.59 207.9 61.15"/><polygon class="cls-2" points="233.19 92.58 229.28 92.58 229.28 52.21 250.61 82.53 250.61 54.62 254.52 54.62 254.52 94.93 233.19 64.61 233.19 92.58"/><path class="cls-2" d="M317.89,110.83a18.31,18.31,0,0,1-10.67,3.37,18,18,0,0,1-13.46-5.8,19.12,19.12,0,0,1-5.47-13.68A19.82,19.82,0,0,1,293.76,81a18.56,18.56,0,0,1,24.07-2.48,18.84,18.84,0,0,1,6.92,8.74h-4.3a14.92,14.92,0,0,0-9.18-7.46,16.35,16.35,0,0,0-4.61-.58,12.76,12.76,0,0,0-5.36,1.25,15.72,15.72,0,0,0-4.77,3.38,15.78,15.78,0,0,0,0,21.72A14.65,14.65,0,0,0,315,108a15.34,15.34,0,0,0,5.5-5.92h4.3a18.76,18.76,0,0,1-6.92,8.8" transform="translate(-27.07 -21.06)"/><polygon class="cls-2" points="303.6 92.58 303.6 54.62 326.15 54.62 326.15 58.24 307.51 58.24 307.51 71.76 325.6 71.76 325.6 75.44 307.51 75.44 307.51 88.95 326.15 88.95 326.15 92.58 303.6 92.58"/><path class="cls-2" d="M330.67,70.27C315.47,67.33,259.31,49.08,210.26,49S100.58,66.2,100.58,66.2s64.3-23.89,113.47-23.07c54.23.9,116.62,27.14,116.62,27.14" transform="translate(-27.07 -21.06)"/><path class="cls-2" d="M235.74,41.14c-44.53-13.94-59.33-20.08-102.4-20.08,0,0,18.33,4.13,22.24,13C152,43.64,98,58.94,88.41,60,77.61,60.45,52.3,50,52.3,50S71.24,66.93,62,67.86c6.49,7.39,101.38-36.7,173.76-26.72" transform="translate(-27.07 -21.06)"/><path class="cls-2" d="M249.26,67c-.8-.38-3.84,0-4.09-.14,0-2.23-12.57-12.16-19.77-12.78,11,1.11,19.71,7.28,23.86,12.92" transform="translate(-27.07 -21.06)"/><path class="cls-2" d="M256.7,67c-.8-.38-3.84,0-4.09-.14,0-2.23-12.57-12.16-19.77-12.78,11,1.11,19.71,7.28,23.86,12.92" transform="translate(-27.07 -21.06)"/><path class="cls-2" d="M264.65,67c-.81-.38-3.84,0-4.1-.14,0-2.23-13.22-12.43-20.43-13.06,11,1.12,20.38,7.56,24.53,13.2" transform="translate(-27.07 -21.06)"/><path class="cls-2" d="M304.48,66.21c-2,.21-8.08-.74-9.05.69-1.9-2.16-4.47-2.69-9-4.55a74.8,74.8,0,0,1,18.09,3.86" transform="translate(-27.07 -21.06)"/><rect class="cls-3" x="0.04" y="119.13" width="13.61" height="13.61"/><rect class="cls-3" x="312.9" y="119.13" width="13.61" height="13.61"/></svg>