<?xml version="1.0"?>
<svg xmlns="http://www.w3.org/2000/svg" id="outline" viewBox="0 0 512 512" width="512" height="512"><title>venture-capital-vision-corporate-Investor</title><path d="M449.49512,287.20117a72.21915,72.21915,0,0,0-40.46094-41.0039l-86.05835-34.4231A79.43188,79.43188,0,0,0,335.99951,168L336,80a64.07239,64.07239,0,0,0-64-64H248a31.97035,31.97035,0,0,0-25.59546,12.81665A23.87455,23.87455,0,0,0,208,24a32.03635,32.03635,0,0,0-32,32V168a79.51182,79.51182,0,0,0,13.07544,43.75366l-86.10962,34.44361a72.21915,72.21915,0,0,0-40.46094,41.0039L37.8667,351.26172a88.014,88.014,0,0,0,19.91211,93.831l40.56445,40.56446.00134-.00147a7.96046,7.96046,0,0,0,4.08655,2.189l40,8A7.98421,7.98421,0,0,0,144,496H368a7.98421,7.98421,0,0,0,1.56885-.15527l40-8a7.96046,7.96046,0,0,0,4.08655-2.189l.00134.00147,40.56445-40.56446a88.014,88.014,0,0,0,19.91211-93.831ZM342.42383,409.36035a16.233,16.233,0,0,0-15.34815,4.251A16.007,16.007,0,0,0,325.11841,416H296V400h64v13.75391ZM225.32983,79.04321A43.93638,43.93638,0,0,0,260,96h59.99951v72A63.99976,63.99976,0,1,1,192,168V96h1.37012A38.61854,38.61854,0,0,0,225.32983,79.04321ZM296,368h64v16H296Zm64-16H296V336h64Zm-80,32H232V304h48Zm-8.772-114.32422L259.60156,288h-7.32031L240,269.57812v-23.188a80.50406,80.50406,0,0,0,31.228.16015ZM224,241.30029V272a7.99836,7.99836,0,0,0,1.34375,4.4375L233.052,288H204.94434l-27.234-54.468,21.96252-8.78491A80.29834,80.29834,0,0,0,224,241.30029ZM216,304v16H168v16h48v16H168v16h48v16H152V304Zm-64,96h64v16H186.88208a16.06111,16.06111,0,0,0-1.95728-2.38965,16.23979,16.23979,0,0,0-15.34912-4.25L152,413.75391Zm34.94531,34.00488A16.00205,16.00205,0,0,0,188.06714,432H216v16H197.12134l-16.3855-4.68164ZM232,400h48v80H232Zm82.87891,48H296V432h27.93323a16.03888,16.03888,0,0,0,1.12243,2.00586l6.2085,9.3125ZM296,320V304h64v16Zm64-56a24.02718,24.02718,0,0,1-24,24H303.978A39.7896,39.7896,0,0,0,312,264v-8h48Zm-56-24a8.00008,8.00008,0,0,0-8,8v16a24.04081,24.04081,0,0,1-16.73438,22.873l6.71729-10.58692A7.9977,7.9977,0,0,0,287.228,272V241.686a79.8726,79.8726,0,0,0,25.13684-16.92383L350.45972,240ZM248,32h24a48.054,48.054,0,0,1,48,48H260a28.03146,28.03146,0,0,1-28-28V48A16.01833,16.01833,0,0,1,248,32Zm-40,8a8.00917,8.00917,0,0,1,8,8v9.37012A22.65537,22.65537,0,0,1,193.37012,80H192V56A16.01833,16.01833,0,0,1,208,40ZM100.65967,451.37988l-1.99512,11.97071L69.09229,433.77832a72.01208,72.01208,0,0,1-16.292-76.77246l24.63819-64.06055a56.17256,56.17256,0,0,1,31.46972-31.89258l53.8949-21.55786L187.05566,288H144a8.00008,8.00008,0,0,0-8,8V417.75391l-2.1853.54638L124.03076,403.624A23.929,23.929,0,0,1,120,390.31152V360H104v30.31152a39.87335,39.87335,0,0,0,6.71826,22.1875l7.85352,11.78028A39.96565,39.96565,0,0,0,100.65967,451.37988ZM144.792,480l-31.62744-6.3252,3.27734-19.66406a23.99164,23.99164,0,0,1,17.853-19.33886l39.16113-9.79a.16945.16945,0,0,1,.15577.04394.16387.16387,0,0,1,.02.20508L161.34375,443.5625a8.00015,8.00015,0,0,0,4.4585,12.12988l46.07812,13.165A5.68063,5.68063,0,0,1,210.31934,480Zm222.416,0H301.68066a5.68055,5.68055,0,0,1-1.56054-11.14258l46.07763-13.165a8.00015,8.00015,0,0,0,4.4585-12.12988l-12.28711-18.43066a.16453.16453,0,0,1,.01953-.207.161.161,0,0,1,.11524-.04785.179.179,0,0,1,.03955.00489l39.16162,9.79a23.99164,23.99164,0,0,1,17.853,19.33886l3.27734,19.66406Zm75.6997-46.22168-29.57226,29.57227-1.99512-11.97071a39.96565,39.96565,0,0,0-17.91211-27.10058l7.854-11.78028A39.87677,39.87677,0,0,0,408,390.31152V352H392v38.31152a23.929,23.929,0,0,1-4.03076,13.3125l-9.78394,14.67627L376,417.75391V296a8.00008,8.00008,0,0,0-8-8h-.022A39.7896,39.7896,0,0,0,376,264V250.21606l27.0918,10.83667a56.17256,56.17256,0,0,1,31.46972,31.89258l24.63819,64.06055a72.01208,72.01208,0,0,1-16.292,76.77246Z"/><rect x="208" y="112" width="32" height="16"/><path d="M240,200h8a24.02718,24.02718,0,0,0,24-24V160H256v16a8.00917,8.00917,0,0,1-8,8h-8Z"/><circle cx="224" cy="144" r="8"/><rect x="272" y="112" width="32" height="16"/><circle cx="288" cy="144" r="8"/></svg>
